# xmcd
#
# Track frame offsets:
#	150
#	14170
#	45814
#	66570
#	95650
#	113219
#	122711
#	138263
#	156967
#	165994
#	183960
#	202031
#	221638
#
# Disc length: 3220 seconds
#
# Revision: 0
# Processed by: cddbd v1.5.1PL0 Copyright (c) Steve Scherf et al.
# Submitted via: dBpowerAMP V4.0
#
DISCID=ba0c920d
DTITLE=Andy Boy and Vinicius Silveira - Slidin' and Harpin'
DYEAR=1998
DGENRE=blues
TTITLE0=Cheatin' Boogie
TTITLE1=You Can Try in Vain
TTITLE2=Minor Gig
TTITLE3=Stormy Monday
TTITLE4=Toca o celular
TTITLE5=Vini's Boogie
TTITLE6=Don't Go to Work
TTITLE7=Ain't Gonna Say Goodbye
TTITLE8=Jammin' Harp
TTITLE9=Ain't the God
TTITLE10=Froze
TTITLE11=Make Up Your Mind
TTITLE12=Slidin' n' Harpin'
EXTD=
EXTT0=
EXTT1=
EXTT2=
EXTT3=
EXTT4=
EXTT5=
EXTT6=
EXTT7=
EXTT8=
EXTT9=
EXTT10=
EXTT11=
EXTT12=
PLAYORDER=
